Coordinates
version=1
nRows=43
nColumns=12
inDegrees=yes

Units are S.I. units (second, meters, Newtons, ...)
Angles are in degrees

endheader
time	SC_y	SC_z	SC_x	AC_y	AC_z	AC_x	GH_y	GH_z	GH_yy	EL_x	PS_y
       0.0              -14.58         -1.279          70.67          68.28         -4.791          8.551         -40.48          37.63          31.31           8.47          79.29
   0.02285              -14.59         -1.276          70.66          68.28         -4.789          8.552         -40.47          37.63          31.29          8.477          79.28
    0.0457              -14.59         -1.273          70.66          68.27         -4.787          8.554         -40.45          37.63          31.28          8.484          79.28
   0.06856               -14.6          -1.27          70.65          68.27         -4.785          8.556         -40.44          37.62          31.26          8.492          79.27
   0.09141               -14.6         -1.266          70.65          68.26         -4.782          8.558         -40.42          37.62          31.24            8.5          79.27
    0.1143              -14.61         -1.262          70.64          68.26          -4.78           8.56         -40.41          37.61          31.23          8.509          79.26
    0.1371              -14.62         -1.258          70.64          68.26         -4.777          8.562         -40.39          37.61          31.21          8.519          79.26
      0.16              -14.62         -1.254          70.63          68.25         -4.774          8.564         -40.37          37.61          31.19          8.529          79.25
    0.1828              -14.63         -1.249          70.62          68.24         -4.771          8.567         -40.35           37.6          31.16          8.539          79.25
    0.2057              -14.64         -1.244          70.62          68.24         -4.768          8.569         -40.33           37.6          31.14          8.551          79.24
    0.2285              -14.65         -1.239          70.61          68.23         -4.764          8.572          -40.3          37.59          31.11          8.564          79.23
    0.2514              -14.66         -1.233           70.6          68.23          -4.76          8.575         -40.28          37.59          31.08          8.577          79.23
    0.2742              -14.67         -1.226          70.59          68.22         -4.756          8.579         -40.25          37.58          31.05          8.592          79.22
    0.2971              -14.68          -1.22          70.58          68.21         -4.751          8.582         -40.22          37.57          31.02          8.607          79.21
    0.3199              -14.69         -1.212          70.57           68.2         -4.746          8.586         -40.19          37.57          30.99          8.624           79.2
    0.3428              -14.71         -1.204          70.56          68.19         -4.741           8.59         -40.15          37.56          30.95          8.643          79.19
    0.3656              -14.72         -1.196          70.54          68.18         -4.735          8.595         -40.12          37.55          30.91          8.663          79.18
    0.3885              -14.74         -1.186          70.53          68.17         -4.729            8.6         -40.07          37.54          30.86          8.684          79.17
    0.4113              -14.76         -1.176          70.52          68.16         -4.722          8.605         -40.03          37.53          30.81          8.708          79.15
    0.4342              -14.78         -1.165           70.5          68.15         -4.715          8.611         -39.98          37.52          30.76          8.734          79.14
     0.457               -14.8         -1.153          70.48          68.13         -4.706          8.618         -39.93          37.51           30.7          8.763          79.12
    0.4799              -14.82         -1.139          70.46          68.12         -4.697          8.625         -39.87           37.5          30.64          8.794           79.1
    0.5028              -14.85         -1.124          70.44           68.1         -4.687          8.633          -39.8          37.48          30.56          8.829          79.08
    0.5256              -14.88         -1.107          70.41          68.08         -4.676          8.642         -39.73          37.47          30.48          8.868          79.06
    0.5485              -14.91         -1.089          70.39          68.06         -4.664          8.652         -39.65          37.45           30.4           8.91          79.04
    0.5713              -14.94         -1.068          70.36          68.03          -4.65          8.662         -39.56          37.43           30.3          8.958          79.01
    0.5942              -14.98         -1.045          70.32          68.01         -4.635          8.675         -39.46          37.41          30.19          9.012          78.98
     0.617              -15.03         -1.019          70.28          67.98         -4.617          8.688         -39.34          37.38          30.06          9.072          78.95
    0.6399              -15.08        -0.9898          70.24          67.94         -4.598          8.704         -39.22          37.35          29.92           9.14          78.91
    0.6627              -15.13        -0.9565          70.19           67.9         -4.575          8.722         -39.07          37.32          29.76          9.217          78.87
    0.6856               -15.2        -0.9184          70.13          67.86          -4.55          8.742         -38.91          37.28          29.58          9.305          78.82
    0.7084              -15.28        -0.8748          70.07          67.81         -4.521          8.765         -38.71          37.24          29.37          9.406          78.76
    0.7313              -15.36        -0.8243          69.99          67.75         -4.487          8.792         -38.49          37.19          29.13          9.523           78.7
    0.7541              -15.46        -0.7658          69.91          67.68         -4.448          8.823         -38.24          37.14          28.85          9.659          78.62
     0.777              -15.58        -0.6972          69.81           67.6         -4.402          8.859         -37.94          37.07          28.52          9.818          78.53
    0.7998              -15.72        -0.6164          69.69          67.51         -4.348          8.902         -37.59          36.99          28.13           10.0          78.43
    0.8227              -15.88        -0.5204          69.54          67.39         -4.284          8.952         -37.17           36.9          27.67          10.23           78.3
    0.8455              -16.08        -0.4053          69.37          67.26         -4.207          9.013         -36.67          36.79          27.12          10.49          78.15
    0.8684              -16.32        -0.2661          69.17           67.1         -4.114          9.087         -36.06          36.66          26.46          10.82          77.97
    0.8912              -16.61       -0.09601          68.91           66.9           -4.0          9.177         -35.32          36.49          25.64          11.21          77.75
    0.9141              -16.97         0.1139           68.6          66.66          -3.86          9.288          -34.4          36.29          24.64           11.7          77.48
    0.9369              -17.42         0.3757          68.22          66.35         -3.685          9.427         -33.26          36.04          23.38           12.3          77.14
    0.9598              -17.99         0.7055          67.73          65.97         -3.464          9.601         -31.82          35.72          21.81          13.07          76.71
